<?xml version="1.0" encoding="UTF-8" standalone="no"?>
<!-- Created with Inkscape (http://www.inkscape.org/) -->

<svg
   xmlns:svg="http://www.w3.org/2000/svg"
   xmlns="http://www.w3.org/2000/svg"
   version="1.1"
   width="2160"
   height="1080"
   id="svg2816">
  <defs
     id="defs2818" />
  <g
     transform="translate(0,90)"
     id="layer1">
    <path
       d="m 354.03518,923.56431 c 0,-9.30502 0.6631,-17.63002 1.4736,-18.5 0.8738,-0.938 4.3321,-1.58179 8.497,-1.58179 l 7.0235,0 0,-8.5 0,-8.5 -7.0235,0 c -8.7201,0 -9.9706,-1.26446 -9.9706,-10.08179 l 0,-6.91821 44.9129,0 44.9128,0 0,6.56574 c 0,8.13761 -2.6906,10.43426 -12.224,10.43426 l -7.1977,0 0,8.5 0,8.5 7.3432,0 c 10.5956,0 12.0785,2.58623 12.0785,21.0651 l 0,15.9349 -16.7343,0 c -19.7179,0 -19.6815,0.0195 -19.6815,-10.58179 l 0,-7.41821 -8.497,0 -8.4971,0 0,7.06574 c 0,10.09579 -1.5889,10.93426 -20.721,10.93426 l -15.6948,0 0,-16.91821 z m 101.9644,0 c 0,-9.30502 0.6631,-17.63002 1.4736,-18.5 0.8738,-0.938 4.3321,-1.58179 8.497,-1.58179 l 7.0234,0 0,-8.43664 0,-8.43664 -7.8901,-0.31336 -7.8901,-0.31336 -0.7051,-8.25 -0.7051,-8.25 35.3002,0 35.3001,0 0,35.56336 0,35.56336 -7.8901,-0.31336 -7.8901,-0.31336 -0.7014,-8.75 -0.7015,-8.75 -8.4025,0 -8.4025,0 0,6.4349 c 0,3.5392 -1.0654,7.5892 -2.3676,9 -2.2076,2.39173 -3.4383,2.5651 -18.208,2.5651 l -15.8402,0 0,-16.91821 z m 83.0943,-1.28558 0.6621,-18.29621 7.8901,-0.31336 7.8901,-0.31336 0,-8.37328 0,-8.37328 -7.8901,-0.31336 -7.8901,-0.31336 -0.7051,-8.25 -0.7051,-8.25 34.0863,0 34.0863,0 0,35.5 0,35.5 -6.1294,0 c -7.9421,0 -10.8647,-3.11097 -10.8647,-11.5651 l 0,-6.4349 -8.4025,0 -8.4025,0 -0.7015,8.75 -0.7014,8.75 -16.4423,0.29621 -16.4423,0.29621 0.6621,-18.29621 z M 48.17521,919.23252 c 0.04,-19.59381 0.595,-20.75 9.96089,-20.75 l 7.00003,0 0,-8.5 0,-8.5 -7.02343,0 c -4.1649,0 -7.62319,-0.64379 -8.49703,-1.58179 -0.81049,-0.86998 -1.47361,-9.19498 -1.47361,-18.5 l 0,-16.91821 16.71092,0 c 19.56872,0 19.61819,0.0295 19.67178,11.75 l 0.0331,7.25 8.49703,0 8.49703,0 0.0331,-7.25 c 0.0537,-11.72045 0.10316,-11.75 19.67188,-11.75 l 16.71092,0 -0.0331,16.25 c -0.0409,20.05686 -0.4142,20.75 -11.17475,20.75 l -8.21389,0 0,8.5 0,8.5 7.19776,0 c 4.63154,0 8.09376,0.68962 9.71089,1.93426 1.44225,1.11004 2.51314,8.99316 2.51314,18.5 l 0,16.56574 -16.73432,0 c -19.7179,0 -19.68153,0.0195 -19.68153,-10.58179 l 0,-7.41821 -8.49703,0 -8.49703,0 0,7.41821 c 0,10.60134 0.0364,10.58179 -19.68152,10.58179 l -16.73433,0 0.0331,-16.25 z m 101.93122,-0.66821 c 0,-9.30502 0.66312,-17.63002 1.4736,-18.5 0.87385,-0.938 4.33214,-1.58179 8.49703,-1.58179 l 7.02343,0 0,-8.5 0,-8.5 -7.02343,0 c -4.16489,0 -7.62318,-0.64379 -8.49703,-1.58179 -0.81048,-0.86998 -1.4736,-9.19498 -1.4736,-18.5 l 0,-16.91821 15.69479,0 c 19.26656,0 20.72106,0.80265 20.72106,11.43426 l 0,7.56574 8.497,0 8.4971,0 0,-7.91821 c 0,-11.15805 -0.1355,-11.08179 19.6815,-11.08179 l 16.7343,0 -0.033,16.25 c -0.041,20.05686 -0.4142,20.75 -11.1748,20.75 l -8.2139,0 0,8.5 0,8.5 7.1978,0 c 4.6315,0 8.0937,0.68962 9.7109,1.93426 1.4422,1.11004 2.5131,8.99316 2.5131,18.5 l 0,16.56574 -16.7343,0 c -19.7179,0 -19.6815,0.0195 -19.6815,-10.58179 l 0,-7.41821 -8.4971,0 -8.497,0 -0.033,6.75 c -0.055,11.16462 -0.2042,11.25 -19.67183,11.25 l -16.71092,0 0,-16.91821 z m 101.96435,0 c 0,-9.30502 0.6631,-17.63002 1.4736,-18.5 0.8739,-0.938 4.3322,-1.58179 8.4971,-1.58179 l 7.0234,0 0,-8.5 0,-8.5 -7.0234,0 c -4.1649,0 -7.6232,-0.64379 -8.4971,-1.58179 -0.8105,-0.86998 -1.4736,-9.19498 -1.4736,-18.5 l 0,-16.91821 44.9129,0 44.9129,0 0,16.56574 c 0,9.50684 -1.0709,17.38996 -2.5132,18.5 -1.6171,1.24464 -5.0793,1.93426 -9.7108,1.93426 l -7.1978,0 0,8.5 0,8.5 7.1978,0 c 4.6315,0 8.0937,0.68962 9.7108,1.93426 1.4423,1.11004 2.5132,8.99316 2.5132,18.5 l 0,16.56574 -16.7343,0 c -13.02,0 -17.0615,-0.35109 -18.208,-1.58179 -0.8105,-0.86998 -1.4736,-10.99498 -1.4736,-22.5 l 0,-20.91821 -8.497,0 -8.497,0 0,20.56574 c 0,12.26414 -1.0145,21.34653 -2.5132,22.5 -2.0868,1.60613 -5.1756,1.93426 -18.2079,1.93426 l -15.6948,0 0,-16.91821 z m 527.9855,8.66821 c 14.9749,-26.697 28.2165,-49.10983 29.5323,-49.9868 1.0651,-0.70992 4.179,0.11253 8.5024,2.24572 3.752,1.85123 7.2264,3.16904 7.7209,2.92848 0.4945,-0.24057 2.608,-3.29542 4.6965,-6.78856 l 3.7975,-6.35117 -7.0739,-4.59461 c -3.8907,-2.52704 -7.074,-5.34949 -7.074,-6.2721 0,-2.01123 26.0503,-48.65698 28.6094,-51.22804 2.0478,-2.05738 29.6918,45.64964 29.6696,51.20269 -0.01,2.13728 -2.4111,4.70035 -6.4512,6.88215 l -6.4376,3.47654 4.2169,7.36785 c 2.3193,4.05232 4.5809,7.36785 5.0257,7.36785 0.4449,0 3.2274,-1.61191 6.1834,-3.58203 4.4234,-2.94814 5.9188,-3.34631 8.45,-2.25 2.6458,1.14593 30.27056,47.42365 30.27056,50.71007 0,0.86223 -8.0735,1.10729 -29.73966,0.90274 l -29.7397,-0.28078 -0.7014,-8.75 -0.7015,-8.75 -8.4025,0 -8.4025,0 -0.033,6.75 c -0.058,11.86146 1.7392,11.25 -33.0705,11.25 -29.9803,0 -30.1042,-0.01 -28.8476,-2.25 z m 138.55926,-23.05016 c -7.8488,-13.85991 -14.05722,-26.54984 -13.79642,-28.19984 0.2607,-1.65 3.24092,-4.72315 6.62272,-6.82921 l 6.1486,-3.82922 -4.2315,-7.39336 -4.2315,-7.39335 -5.82462,3.53071 c -3.2035,1.9419 -7.1076,3.35619 -8.67574,3.14287 -1.5682,-0.21332 -9.4846,-12.05198 -17.5921,-26.30814 l -14.7408,-25.9203 29.1156,-0.28215 c 21.64906,-0.2098 29.62226,0.0466 31.09086,1 1.0864,0.70518 1.9919,4.76965 2.0123,9.03215 l 0.037,7.75 8.497,0 8.49709,0 0.033,-6.75 c 0.058,-11.86146 -1.7392,-11.25 33.0705,-11.25 29.98797,0 30.10437,0.009 28.82157,2.25 -0.7084,1.2375 -7.29677,12.76393 -14.64077,25.61428 -7.344,12.85035 -13.9507,23.76285 -14.6817,24.25 -2.4042,1.60236 -5.5594,0.93024 -9.9256,-2.11428 -2.3662,-1.65 -4.948,-3 -5.7372,-3 -0.7892,0 -3.287,3.17882 -5.5508,7.06405 l -4.1159,7.06405 5.8853,3.18595 c 3.2368,1.75227 6.5596,4.31095 7.3839,5.68595 0.9151,1.5264 -4.295,12.62539 -13.3783,28.5 -8.1824,14.3 -15.08969,26.08993 -15.34969,26.19984 -0.2599,0.10991 -6.8943,-11.14009 -14.7431,-25 z m -180.42186,3.75827 c -4.0664,-0.70428 -10.2651,-3.00796 -13.7748,-5.1193 -7.9218,-4.76539 -16.2143,-15.68111 -16.7481,-22.04613 -0.3954,-4.71572 -0.2752,-4.79771 7.4882,-5.10604 l 7.8901,-0.31336 0,-8.37328 0,-8.37328 -7.8901,-0.31336 c -7.8123,-0.31027 -7.884,-0.36127 -7.2754,-5.17053 1.3734,-10.85132 16.3678,-24.36268 29.5287,-26.60817 9.8385,-1.67863 19.6249,-0.63638 19.6249,2.09005 0,1.14763 -1.6854,4.76581 -3.7454,8.0404 l -3.7455,5.9538 7.1486,4.00399 c 3.9317,2.20219 7.658,3.63793 8.2807,3.19054 0.6227,-0.44739 2.4777,-3.17594 4.1222,-6.06344 1.6445,-2.8875 3.9222,-5.25 5.0615,-5.25 2.481,0 6.1698,5.17709 9.8925,13.88359 5.4293,12.69777 -1.8802,44.11641 -10.2636,44.11641 -1.0969,0 -3.3482,-2.7 -5.0029,-6 -1.6548,-3.3 -3.867,-6 -4.9162,-6 -1.0491,0 -4.5818,1.6875 -7.8504,3.75 -5.8968,3.72093 -5.9139,3.80235 -2.2054,10.50312 2.0557,3.71421 3.1682,7.36427 2.4724,8.11123 -1.9093,2.0494 -9.8148,2.52733 -18.092,1.09376 z m 290.40702,-0.28079 c -10.665,-2.19344 -22.0987,-11.01415 -27.4155,-21.1502 -4.71177,-8.98278 -3.56847,-11.02712 6.1672,-11.02712 l 7.0235,0 0,-8.5 0,-8.5 -7.3594,0 c -4.0477,0 -7.92187,-0.60384 -8.60947,-1.34187 -1.8481,-1.98379 5.07877,-14.65833 11.22997,-20.54812 5.7684,-5.52329 19.0811,-11.11001 26.4743,-11.11001 13.0621,0 14.8408,2.40573 8.7488,11.83302 -3.3799,5.23056 -3.3211,5.40755 3.0635,9.21205 3.5804,2.13347 7.1869,3.89611 8.0146,3.91698 0.8277,0.0209 2.7877,-2.64775 4.3555,-5.93027 1.5678,-3.28252 3.7568,-6.19892 4.8644,-6.48089 2.0376,-0.51872 8.0899,7.60781 11.1334,14.94911 2.5489,6.14822 1.811,25.41595 -1.1874,31.00487 -4.8523,9.04451 -7.478,12.49513 -9.5079,12.49513 -1.1013,0 -3.3934,-2.7 -5.0936,-6 -1.7002,-3.3 -3.8599,-6 -4.7994,-6 -0.9396,0 -4.4953,1.61345 -7.9016,3.58545 -6.1046,3.53407 -6.1435,3.67343 -2.7175,9.72277 1.9117,3.37552 3.1586,7.00058 2.7709,8.0557 -1.0805,2.94067 -9.7865,3.76061 -19.2543,1.8134 z m -409.94372,-7.63027 c 0,-8.38165 3.4344,-11.54705 12.5283,-11.54705 l 6.8935,0 0,-8.5 0,-8.5 -7.1978,0 c -9.5334,0 -12.224,-2.29665 -12.224,-10.43426 l 0,-6.56574 36.514,0 36.514,0 -0.7051,8.25 -0.7051,8.25 -7.8901,0.31336 -7.8901,0.31336 0,8.43664 0,8.43664 7.0235,0 c 8.8015,0 9.9706,1.24074 9.9706,10.58179 l 0,7.41821 -36.4159,0 -36.4158,0 0,-6.45295 z m -264.0696,-60.79705 0.6617,-18.25 7.8901,-0.31336 7.8901,-0.31336 0,-8.43664 0,-8.43664 -7.0235,0 c -8.8015,0 -9.9706,-1.24074 -9.9706,-10.58179 l 0,-7.41821 44.9129,0 44.9128,0 0,6.4349 c 0,8.88436 -2.7997,11.5651 -12.0785,11.5651 l -7.3432,0 0,8.5 0,8.5 7.1977,0 c 4.6316,0 8.0938,0.68962 9.7109,1.93426 1.4423,1.11004 2.5131,8.99316 2.5131,18.5 l 0,16.56574 -16.7343,0 c -19.8169,0 -19.6815,0.0763 -19.6815,-11.08179 l 0,-7.91821 -8.497,0 -8.4971,0 0,6.9349 c 0,3.8142 -1.0654,8.0892 -2.3676,9.5 -2.2088,2.39298 -3.4342,2.5651 -18.2627,2.5651 l -15.895,0 0.6617,-18.25 z m 101.9643,0 0.6617,-18.25 7.8901,-0.31336 7.8901,-0.31336 0,-8.43664 0,-8.43664 -7.0234,0 c -8.8016,0 -9.9706,-1.24074 -9.9706,-10.58179 l 0,-7.41821 35.2019,0 35.202,0 0,36 0,36 -7.0234,0 c -8.8762,0 -9.9706,-1.21643 -9.9706,-11.08179 l 0,-7.91821 -8.4971,0 -8.497,0 0,6.95295 c 0,3.82412 -1.2678,8.09912 -2.8174,9.5 -2.5894,2.34089 -4.0675,2.54705 -18.2627,2.54705 l -15.4453,0 0.6617,-18.25 z m 82.5426,0 0.6617,-18.25 7.8901,-0.31336 7.8901,-0.31336 0,-8.43664 0,-8.43664 -7.0234,0 c -8.8016,0 -9.9707,-1.24074 -9.9707,-10.58179 l 0,-7.41821 33.9882,0 33.9881,0 0,36 0,36 -5.6796,0 c -7.8953,0 -11.3145,-3.64054 -11.3145,-12.04705 l 0,-6.95295 -8.497,0 -8.497,0 0,7.91821 c 0,11.07162 -0.017,11.08179 -18.5225,11.08179 l -15.5752,0 0.6617,-18.25 z m 79.5627,-3.31574 c 0,-8.13761 2.6906,-10.43426 12.224,-10.43426 l 7.1978,0 0,-9 0,-9 -7.1978,0 c -9.5334,0 -12.224,-2.29665 -12.224,-10.43426 l 0,-6.56574 36.514,0 36.514,0 -0.7051,8.25 -0.7051,8.25 -7.8901,0.31336 -7.8901,0.31336 0,8.87328 0,8.87328 7.8901,0.31336 7.8901,0.31336 0.7051,8.25 0.7051,8.25 -36.514,0 -36.514,0 0,-6.56574 z M 48.17521,816.23252 c 0.04,-19.59381 0.595,-20.75 9.96089,-20.75 l 7.00003,0 0,-8.5 0,-8.5 -7.02343,0 c -4.1649,0 -7.62319,-0.64379 -8.49703,-1.58179 -0.81049,-0.86998 -1.47361,-9.19498 -1.47361,-18.5 l 0,-16.91821 16.71092,0 c 19.56872,0 19.61819,0.0296 19.67178,11.75 l 0.0331,7.25 8.49703,0 8.49703,0 0,-7.91821 c 5e-5,-11.15805 -0.13538,-11.08179 19.68158,-11.08179 l 16.73432,0 -0.0331,16.25 c -0.0409,20.05686 -0.4142,20.75 -11.17475,20.75 l -8.21389,0 0,8.5 0,8.5 8.21389,0 c 10.76055,0 11.13383,0.69314 11.17475,20.75 l 0.0331,16.25 -16.73432,0 c -19.7179,0 -19.68153,0.0195 -19.68153,-10.58179 l 0,-7.41821 -8.49703,0 -8.49703,0 -0.0331,6.75 c -0.0549,11.16462 -0.20417,11.25 -19.67183,11.25 l -16.71092,0 0.0331,-16.25 z m 101.93122,-0.66821 c 0,-9.30502 0.66312,-17.63002 1.4736,-18.5 0.87385,-0.938 4.33214,-1.58179 8.49703,-1.58179 l 7.02343,0 0,-8.5 0,-8.5 -7.02343,0 c -4.16489,0 -7.62318,-0.64379 -8.49703,-1.58179 -0.81048,-0.86998 -1.4736,-9.19498 -1.4736,-18.5 l 0,-16.91821 16.71092,0 c 19.56873,0 19.61823,0.0296 19.67173,11.75 l 0.033,7.25 8.497,0 8.4971,0 0,-7.91821 c 0,-11.15805 -0.1355,-11.08179 19.6815,-11.08179 l 16.7343,0 0,16.56574 c 0,9.50684 -1.0709,17.38996 -2.5131,18.5 -1.6172,1.24464 -5.0794,1.93426 -9.7109,1.93426 l -7.1978,0 0,8.5 0,8.5 7.1978,0 c 4.6315,0 8.0937,0.68962 9.7109,1.93426 1.4422,1.11004 2.5131,8.99316 2.5131,18.5 l 0,16.56574 -16.7343,0 c -19.7179,0 -19.6815,0.0195 -19.6815,-10.58179 l 0,-7.41821 -8.4971,0 -8.497,0 -0.033,6.75 c -0.055,11.16462 -0.2042,11.25 -19.67183,11.25 l -16.71092,0 0,-16.91821 z m 101.96435,0 c 0,-9.30502 0.6631,-17.63002 1.4736,-18.5 0.8739,-0.938 4.3322,-1.58179 8.4971,-1.58179 l 7.0234,0 0,-8.5 0,-8.5 -7.0234,0 c -4.1649,0 -7.6232,-0.64379 -8.4971,-1.58179 -0.8105,-0.86998 -1.4736,-9.19498 -1.4736,-18.5 l 0,-16.91821 44.9129,0 44.9129,0 0,16.56574 c 0,9.50684 -1.0709,17.38996 -2.5132,18.5 -1.6171,1.24464 -5.0793,1.93426 -9.7108,1.93426 l -7.1978,0 0,8.5 0,8.5 7.1978,0 c 4.6315,0 8.0937,0.68962 9.7108,1.93426 1.4423,1.11004 2.5132,8.99316 2.5132,18.5 l 0,16.56574 -16.7343,0 c -13.02,0 -17.0615,-0.35109 -18.208,-1.58179 -0.8105,-0.86998 -1.4736,-10.99498 -1.4736,-22.5 l 0,-20.91821 -8.497,0 -8.497,0 0,20.56574 c 0,12.26414 -1.0145,21.34653 -2.5132,22.5 -2.0868,1.60613 -5.1756,1.93426 -18.2079,1.93426 l -15.6948,0 0,-16.91821 z m 610.4953,-24.33179 c 0.5414,-0.6875 7.1861,-12.275 14.7658,-25.75 7.5798,-13.475 14.9161,-25.07864 16.303,-25.78586 1.9383,-0.98845 4.01904,-0.35417 8.99574,2.74232 l 6.47422,4.02817 4.2428,-7.4131 4.2428,-7.4131 -6.1486,-3.82922 c -3.3818,-2.10606 -6.37582,-5.17921 -6.65352,-6.82921 -0.4377,-2.60054 27.17682,-53.77906 28.68292,-53.15867 2.7173,1.1193 29.84399,52.65133 28.70219,54.52516 -0.8066,1.32377 -4.0949,3.82629 -7.3074,5.56116 l -5.8408,3.1543 4.2192,7.45902 4.2192,7.45903 5.8493,-3.25 c 3.2171,-1.7875 7.0875,-3.25 8.6007,-3.25 1.5936,0 8.586,10.21159 16.616,24.26558 7.6255,13.34607 14.50287,25.27107 15.28307,26.5 1.4104,2.2215 1.249,2.23442 -27.91177,2.23442 -34.7305,0 -34.3567,0.1244 -34.3567,-11.43426 l 0,-7.56574 -8.49709,0 -8.497,0 0,7.91821 c 0,4.35502 -0.6631,8.63002 -1.4736,9.5 -1.2338,1.32434 -6.358,1.58179 -31.48426,1.58179 -22.915,0 -29.7779,-0.29554 -29.0262,-1.25 z m -14.2372,-1.75 c -9.5964,-15.76548 -28.1709,-49.63515 -28.1709,-51.36826 0,-1.23075 3.1802,-4.01901 7.0672,-6.19612 l 7.0672,-3.95838 -4.235,-7.42347 -4.235,-7.42348 -5.7165,3.18486 c -4.7129,2.62572 -12.0865,4.32987 -12.0865,2.79336 0,-0.21532 -6.5549,-11.85351 -14.5663,-25.86264 -8.0115,-14.00914 -14.5664,-25.75797 -14.5664,-26.10851 0,-0.35055 13.0713,-0.63736 29.0473,-0.63736 34.4081,0 34.0735,-0.11227 34.0735,11.43426 l 0,7.56574 8.4971,0 8.497,0 0.037,-8.25 c 0.019,-4.5375 0.926,-8.82697 2.0123,-9.53215 1.4686,-0.95328 9.4376,-1.20978 31.0679,-1 l 29.09286,0.28215 -14.71802,25.71526 c -8.0948,14.14339 -15.94494,26.21383 -17.44474,26.8232 -2.0047,0.81452 -4.1901,0.1327 -8.2521,-2.57453 -6.3694,-4.24516 -7.3919,-3.82831 -11.9086,4.85515 -2.915,5.6041 -2.7948,5.9635 3.2541,9.72855 4.0603,2.5273 6.2443,5.24287 6.1772,7.68093 -0.1704,6.19128 -28.2114,53.19464 -29.9908,50.27144 z m -229.6719,-17.56574 c 0,-8.13761 2.6906,-10.43426 12.224,-10.43426 l 7.1978,0 0,-8.5 0,-8.5 -7.3433,0 c -9.2787,0 -12.0785,-2.68074 -12.0785,-11.5651 l 0,-6.4349 36.4158,0 36.4159,0 0,7.41821 c 0,9.34105 -1.1691,10.58179 -9.9706,10.58179 l -7.0235,0 0,8.43664 0,8.43664 7.8901,0.31336 7.8901,0.31336 0.7051,8.25 0.7051,8.25 -36.514,0 -36.514,0 0,-6.56574 z m -264.6218,-15.35247 c 0,-9.30502 0.6631,-17.63002 1.4736,-18.5 0.8738,-0.938 4.3321,-1.58179 8.497,-1.58179 l 7.0235,0 0,-8.5 0,-8.5 -7.0235,0 c -8.7201,0 -9.9706,-1.26446 -9.9706,-10.08179 l 0,-6.91821 44.9129,0 44.9128,0 0,6.56574 c 0,8.13761 -2.6906,10.43426 -12.224,10.43426 l -7.1977,0 0,8.5 0,8.5 7.3432,0 c 10.5956,0 12.0785,2.58623 12.0785,21.0651 l 0,15.9349 -16.7343,0 c -19.7179,0 -19.6815,0.0195 -19.6815,-10.58179 l 0,-7.41821 -8.497,0 -8.4971,0 0,7.06574 c 0,10.09579 -1.5889,10.93426 -20.721,10.93426 l -15.6948,0 0,-16.91821 z m 101.9644,0 c 0,-9.30502 0.6631,-17.63002 1.4736,-18.5 0.8738,-0.938 4.3321,-1.58179 8.497,-1.58179 l 7.0234,0 0,-8.43664 0,-8.43664 -7.8901,-0.31336 -7.8901,-0.31336 -0.7051,-8.25 -0.7051,-8.25 35.3002,0 35.3001,0 0,35.56336 0,35.56336 -7.8901,-0.31336 -7.8901,-0.31336 -0.7014,-8.75 -0.7015,-8.75 -8.4025,0 -8.4025,0 0,7.06574 c 0,10.09579 -1.5889,10.93426 -20.721,10.93426 l -15.6948,0 0,-16.91821 z m 83.0943,-1.28558 0.6621,-18.29621 7.8901,-0.31336 7.8901,-0.31336 0,-8.37328 0,-8.37328 -7.8901,-0.31336 -7.8901,-0.31336 -0.7051,-8.25 -0.7051,-8.25 34.0863,0 34.0863,0 0,35.5 0,35.5 -6.1294,0 c -7.9421,0 -10.8647,-3.11097 -10.8647,-11.5651 l 0,-6.4349 -8.4025,0 -8.4025,0 -0.7015,8.75 -0.7014,8.75 -16.4423,0.29621 -16.4423,0.29621 0.6621,-18.29621 z m 193.5054,13.49466 c -9.6779,-3.35437 -17.9613,-10.54111 -23.1115,-20.05177 -4.6672,-8.61865 -3.6857,-10.2391 6.2019,-10.2391 l 7.3594,0 0,-9 0,-9 -8.497,0 c -7.2901,0 -8.4971,-0.33238 -8.4971,-2.34004 0,-3.68306 8.9248,-17.10691 14.1805,-21.32904 9.0446,-7.26587 23.6757,-10.81587 32.9953,-8.00578 4.5368,1.36797 4.5609,1.65621 0.7334,8.79459 l -3.9572,7.38027 6.273,3.75 c 3.4502,2.0625 6.9983,3.75 7.8848,3.75 0.8865,0 2.9657,-2.7 4.6205,-6 1.6547,-3.3 3.906,-6 5.0029,-6 8.3834,0 15.6929,31.41864 10.2636,44.11641 -3.7531,8.77762 -7.4163,13.88359 -9.9605,13.88359 -1.1767,0 -3.4953,-2.49554 -5.1525,-5.54564 -1.6571,-3.05011 -3.7871,-5.74273 -4.7333,-5.9836 -0.9462,-0.24088 -4.4711,1.27425 -7.8332,3.36694 l -6.1129,3.8049 3.9231,7.73369 c 3.4408,6.78286 3.4843,7.84799 0.3543,8.66339 -6.2927,1.63926 -13.9155,1.03159 -21.9375,-1.74881 z m 288.90832,-1.23578 c -5.0108,-2.1697 -11.3176,-6.37476 -14.0152,-9.34457 -5.7754,-6.35825 -10.96997,-17.32872 -8.86857,-18.7293 0.8098,-0.53967 4.68517,-0.98122 8.61217,-0.98122 l 7.1399,0 0,-9 0,-9 -7.1399,0 c -3.927,0 -7.84827,-0.47215 -8.71417,-1.04921 -1.8725,-1.24802 5.02767,-14.58722 10.23657,-19.78876 8.384,-8.37226 21.3837,-12.82904 33.7048,-11.55526 6.903,0.71366 7.3963,2.91239 2.556,11.39323 -3.0012,5.25856 -2.876,5.66462 2.8532,9.25 3.2958,2.0625 6.7903,3.75 7.7656,3.75 0.9754,0 3.1644,-2.7 4.8646,-6 1.7002,-3.3 4.0039,-6 5.1194,-6 7.3089,0 14.5903,24.14056 11.5464,38.28083 -2.0034,9.30661 -8.799,20.98579 -11.7704,20.22933 -0.9757,-0.24839 -3.1719,-3.16479 -4.8803,-6.48089 -1.7085,-3.3161 -3.7764,-6.01966 -4.5953,-6.00792 -0.819,0.0117 -4.4401,1.74059 -8.0469,3.84188 -6.4627,3.7652 -6.5071,3.89886 -3.0634,9.22865 6.2045,9.60274 4.4309,11.90812 -9.1612,11.90812 -2.768,0 -9.1325,-1.77521 -14.1433,-3.94491 z M 48.14206,712.56431 c 0,-9.30502 0.66312,-17.63002 1.47361,-18.5 0.87384,-0.938 4.33213,-1.58179 8.49703,-1.58179 l 7.02343,0 0,-8.5 0,-8.5 -7.00003,0 c -9.36589,0 -9.92091,-1.15619 -9.96089,-20.75 l -0.0331,-16.25 16.71092,0 c 19.46766,0 19.61695,0.0854 19.67178,11.25 l 0.0331,6.75 8.49703,0 8.49703,0 0,-7.41821 c 0,-10.60134 -0.0364,-10.58179 19.68153,-10.58179 l 16.73432,0 -0.0331,16.25 c -0.0409,20.05686 -0.4142,20.75 -11.17475,20.75 l -8.21389,0 0,8.5 0,8.5 8.21389,0 c 10.76055,0 11.13383,0.69314 11.17475,20.75 l 0.0331,16.25 -16.73432,0 c -19.81696,0 -19.68153,0.0763 -19.68153,-11.08179 l 0,-7.91821 -8.49703,0 -8.49703,0 -0.0331,7.25 c -0.0536,11.72045 -0.10311,11.75 -19.67183,11.75 l -16.71092,0 0,-16.91821 z m 101.96437,0 c 0,-9.30502 0.66312,-17.63002 1.4736,-18.5 0.87385,-0.938 4.33214,-1.58179 8.49703,-1.58179 l 7.02343,0 0,-8.5 0,-8.5 -7.02343,0 c -4.16489,0 -7.62318,-0.64379 -8.49703,-1.58179 -0.81048,-0.86998 -1.4736,-9.19498 -1.4736,-18.5 l 0,-16.91821 16.71092,0 c 19.46763,0 19.61693,0.0854 19.67173,11.25 l 0.033,6.75 8.497,0 8.4971,0 0,-7.41821 c 0,-10.60134 -0.036,-10.58179 19.6815,-10.58179 l 16.7343,0 0,16.56574 c 0,9.50684 -1.0709,17.38996 -2.5131,18.5 -1.6172,1.24464 -5.0794,1.93426 -9.7109,1.93426 l -7.1978,0 0,8.5 0,8.5 7.1978,0 c 4.6315,0 8.0937,0.68962 9.7109,1.93426 1.4422,1.11004 2.5131,8.99316 2.5131,18.5 l 0,16.56574 -16.7343,0 c -19.817,0 -19.6815,0.0763 -19.6815,-11.08179 l 0,-7.91821 -8.4971,0 -8.497,0 -0.033,7.25 c -0.054,11.72045 -0.1031,11.75 -19.67183,11.75 l -16.71092,0 0,-16.91821 z m 101.96435,0 c 0,-9.30502 0.6631,-17.63002 1.4736,-18.5 0.8739,-0.938 4.3322,-1.58179 8.4971,-1.58179 l 7.0234,0 0,-8.5 0,-8.5 -7.0234,0 c -4.1649,0 -7.6232,-0.64379 -8.4971,-1.58179 -0.8105,-0.86998 -1.4736,-9.19498 -1.4736,-18.5 l 0,-16.91821 44.9129,0 44.9129,0 0,16.56574 c 0,9.50684 -1.0709,17.38996 -2.5132,18.5 -1.6171,1.24464 -5.0793,1.93426 -9.7108,1.93426 l -7.1978,0 0,8.5 0,8.5 7.1978,0 c 4.6315,0 8.0937,0.68962 9.7108,1.93426 1.4423,1.11004 2.5132,8.99316 2.5132,18.5 l 0,16.56574 -16.7343,0 c -13.02,0 -17.0615,-0.35109 -18.208,-1.58179 -0.8105,-0.86998 -1.4736,-11.21998 -1.4736,-23 l 0,-21.41821 -8.497,0 -8.497,0 0,21.06574 c 0,12.60881 -1.0089,21.84226 -2.5132,23 -2.0868,1.60613 -5.1756,1.93426 -18.2079,1.93426 l -15.6948,0 0,-16.91821 z m 366.5862,-4.64753 c 0,-8.13761 2.6906,-10.43426 12.224,-10.43426 l 7.1978,0 0,-8.5 0,-8.5 -7.3433,0 c -9.1532,0 -12.0785,-2.67988 -12.0785,-11.0651 l 0,-5.9349 36.4158,0 36.4159,0 0,6.91821 c 0,8.81733 -1.2505,10.08179 -9.9706,10.08179 l -7.0235,0 0,8.43664 0,8.43664 7.8901,0.31336 7.8901,0.31336 0.7051,8.25 0.7051,8.25 -36.514,0 -36.514,0 0,-6.56574 z m -264.0696,-35.68426 0.6617,-18.25 7.8901,-0.31336 7.8901,-0.31336 0,-8.43664 0,-8.43664 -7.0235,0 c -8.8015,0 -9.9706,-1.24074 -9.9706,-10.58179 l 0,-7.41821 44.9129,0 44.9128,0 0,6.4349 c 0,8.88436 -2.7997,11.5651 -12.0785,11.5651 l -7.3432,0 0,8.5 0,8.5 7.1977,0 c 4.6316,0 8.0938,0.68962 9.7109,1.93426 1.4423,1.11004 2.5131,8.99316 2.5131,18.5 l 0,16.56574 -16.7343,0 c -19.8169,0 -19.6815,0.0763 -19.6815,-11.08179 l 0,-7.91821 -8.497,0 -8.4971,0 0,6.9349 c 0,3.8142 -1.0654,8.0892 -2.3676,9.5 -2.2088,2.39298 -3.4342,2.5651 -18.2627,2.5651 l -15.895,0 0.6617,-18.25 z m 101.9643,0 0.6617,-18.25 7.8901,-0.31336 7.8901,-0.31336 0,-8.43664 0,-8.43664 -7.0234,0 c -8.8016,0 -9.9706,-1.24074 -9.9706,-10.58179 l 0,-7.41821 35.2019,0 35.202,0 0,36 0,36 -7.0234,0 c -8.8762,0 -9.9706,-1.21643 -9.9706,-11.08179 l 0,-7.91821 -8.4971,0 -8.497,0 0,6.9349 c 0,3.8142 -1.0654,8.0892 -2.3676,9.5 -2.2088,2.39298 -3.4342,2.5651 -18.2627,2.5651 l -15.8951,0 0.6617,-18.25 z m 82.5426,0 0.6617,-18.25 7.8901,-0.31336 7.8901,-0.31336 0,-8.43664 0,-8.43664 -7.0234,0 c -8.8016,0 -9.9707,-1.24074 -9.9707,-10.58179 l 0,-7.41821 33.9882,0 33.9881,0 0,36 0,36 -5.6796,0 c -7.8953,0 -11.3145,-3.64054 -11.3145,-12.04705 l 0,-6.95295 -8.497,0 -8.497,0 0,7.91821 c 0,11.07162 -0.017,11.08179 -18.5225,11.08179 l -15.5752,0 0.6617,-18.25 z m 239.7924,-18.14591 c 0,-2.46343 29.6077,-51.19651 31.5965,-52.00668 1.9585,-0.79781 3.2702,-0.6879 4.8043,0.40259 4.314,3.06636 9.3636,5.48146 10.451,4.99843 0.6171,-0.27414 2.7518,-3.47915 4.7438,-7.12224 l 3.6217,-6.62382 -6.973,-4.27666 c -3.8351,-2.35217 -6.973,-5.10224 -6.973,-6.11126 0,-2.19753 25.9101,-48.56727 28.615,-51.2104 2.0679,-2.02082 29.7764,45.43954 29.6954,50.86382 -0.025,1.65982 -2.9347,4.76949 -6.4664,6.91038 l -6.4215,3.89251 4.2461,7.41879 4.246,7.41878 6.0004,-3.63731 c 3.3003,-2.00052 7.1865,-3.47446 8.6361,-3.27542 2.4103,0.33094 30.64196,46.95828 30.88186,51.0044 0.093,1.57097 -2.8501,1.75 -28.76926,1.75 -33.462,0 -31.8201,0.54599 -31.8201,-10.58179 l 0,-7.41821 -8.497,0 -8.4971,0 -0.033,6.75 c -0.058,11.85999 1.7323,11.25 -33.0244,11.25 -16.5348,0 -30.0634,-0.17816 -30.0634,-0.39591 z m 139.71446,-25.2952 c -7.9452,-14.09715 -14.19332,-26.99687 -13.88452,-28.66605 0.3087,-1.66918 3.32912,-4.52958 6.71202,-6.35644 l 6.1505,-3.32156 -4.1337,-7.65337 c -4.4637,-8.26436 -3.7492,-8.1736 -14.26062,-1.81147 -2.1862,1.32323 -4.10534,1.66162 -5.67124,1 -1.3018,-0.55 -8.8881,-12.5875 -16.8584,-26.75 l -14.4915,-25.75 29.7196,0 c 34.42226,0 32.66686,-0.56862 32.66686,10.58179 l 0,7.41821 8.497,0 8.49709,0 0.033,-6.75 c 0.058,-11.86518 -1.7564,-11.25 33.188,-11.25 27.64697,0 30.11987,0.14937 28.97247,1.75 -0.6899,0.9625 -7.35367,12.50402 -14.80847,25.64783 -7.4546,13.1438 -14.1293,24.2813 -14.8326,24.75 -2.2756,1.51665 -4.5231,0.89761 -10.4772,-2.88576 l -5.8437,-3.71316 -4.3142,7.47554 -4.3143,7.47555 5.756,3.5 c 3.1658,1.925 6.4112,4.625 7.2119,6 1.0802,1.8547 -22.4388,46.60593 -28.49519,54.22004 -0.315,0.39601 -7.0735,-10.814 -15.0188,-24.91115 z m -299.94416,15.75621 c 0,-8.38522 2.9253,-11.0651 12.0785,-11.0651 l 7.3433,0 0,-8.5 0,-8.5 -7.3433,0 c -9.1532,0 -12.0785,-2.67988 -12.0785,-11.0651 l 0,-5.9349 36.4158,0 36.4159,0 0,6.91821 c 0,8.81733 -1.2505,10.08179 -9.9706,10.08179 l -7.0235,0 0,8.5 0,8.5 7.0235,0 c 8.7201,0 9.9706,1.26446 9.9706,10.08179 l 0,6.91821 -36.4159,0 -36.4158,0 0,-5.9349 z m 113.3645,-13.08972 c -8.4867,-2.74976 -18.3585,-11.68713 -22.7852,-20.62828 -4.3522,-8.79098 -3.3817,-10.3471 6.4534,-10.3471 l 7.3594,0 0,-8.5 0,-8.5 -7.3594,0 c -9.5619,0 -10.9028,-1.66749 -7.3398,-9.12733 7.0997,-14.86472 21.2567,-23.87267 37.5185,-23.87267 11.6797,0 12.926,1.59531 7.9365,10.15876 l -4.0098,6.8819 7.0639,4.01667 c 3.8851,2.20917 7.5782,3.66252 8.2068,3.22967 0.6287,-0.43285 2.4343,-3.3745 4.0126,-6.537 1.5781,-3.1625 3.7424,-5.75 4.8095,-5.75 2.1805,0 6.3317,5.82341 9.8989,13.88649 5.093,11.51181 1.5591,33.98427 -6.774,43.07646 -2.1594,2.35616 -2.3644,2.37784 -4.7276,0.5 -1.3586,-1.07962 -3.2595,-3.75952 -4.2241,-5.95533 -2.5725,-5.85618 -3.4419,-5.97763 -11.2021,-1.56495 l -7.0639,4.01667 4.0098,6.8819 c 2.2053,3.78504 3.3228,7.61919 2.4833,8.52033 -2.177,2.33691 -16.5691,2.10788 -24.2667,-0.38619 z m 290.82162,-0.72538 c -3.7186,-1.5125 -9.3709,-5.07729 -12.5606,-7.92175 -6.3886,-5.69703 -13.84427,-18.87295 -11.87547,-20.98637 0.6876,-0.73804 4.56177,-1.34188 8.60947,-1.34188 l 7.3594,0 0,-8.5 0,-8.5 -7.3594,0 c -4.0477,0 -7.92187,-0.60384 -8.60947,-1.34188 -1.9908,-2.13697 5.51297,-15.30805 12.09517,-21.23025 7.8263,-7.04156 16.7136,-10.42787 27.3677,-10.42787 10.8353,0 12.0413,1.61698 7.5841,10.16795 l -3.6262,6.95673 7.3342,4.17037 7.3341,4.17038 3.287,-5.96149 c 5.5876,-10.13423 7.5037,-9.51033 15.3433,4.99606 4.5828,8.47999 3.304,28.84434 -2.3807,37.90996 -2.728,4.35048 -4.9599,8.15298 -4.9599,8.45 0,0.29702 -1.0611,0.10299 -2.3579,-0.43118 -1.2968,-0.53418 -3.837,-3.6539 -5.6448,-6.93272 l -3.287,-5.96149 -7.3341,4.17038 -7.3342,4.17037 3.6262,6.95673 c 1.9944,3.8262 2.9531,7.67926 2.1304,8.56234 -2.5235,2.70884 -16.9029,2.04373 -24.7413,-1.14439 z M 48.14206,609.56431 c 0,-9.30502 0.66312,-17.63002 1.47361,-18.5 0.87384,-0.938 4.33213,-1.58179 8.49703,-1.58179 l 7.02343,0 0,-8.5 0,-8.5 -7.00003,0 c -9.36589,0 -9.92091,-1.15619 -9.96089,-20.75 l -0.0331,-16.25 16.73433,0 c 19.71789,0 19.68152,-0.0196 19.68152,10.58179 l 0,7.41821 8.49703,0 8.49703,0 0,-7.41821 c -5e-5,-10.60134 -0.0364,-10.58179 19.68148,-10.58179 l 16.73432,0 0,16.56574 c 0,9.50684 -1.07089,17.38996 -2.51314,18.5 -1.61713,1.24464 -5.07935,1.93426 -9.71089,1.93426 l -7.19776,0 0,8.5 0,8.5 8.21389,0 c 10.76055,0 11.13383,0.69314 11.17475,20.75 l 0.0331,16.25 -16.71092,0 c -19.56872,0 -19.61819,-0.0296 -19.67178,-11.75 l -0.0331,-7.25 -8.49703,0 -8.49703,0 -0.0331,7.25 c -0.0536,11.72045 -0.10311,11.75 -19.67183,11.75 l -16.71092,0 0,-16.91821 z m 101.96437,0 c 0,-9.30502 0.66312,-17.63002 1.4736,-18.5 0.87385,-0.938 4.33214,-1.58179 8.49703,-1.58179 l 7.02343,0 0,-8.5 0,-8.5 -7.02343,0 c -4.16489,0 -7.62318,-0.64379 -8.49703,-1.58179 -0.81048,-0.86998 -1.4736,-9.19498 -1.4736,-18.5 l 0,-16.91821 16.71092,0 c 19.46763,0 19.61693,0.0854 19.67173,11.25 l 0.033,6.75 8.497,0 8.4971,0 0,-7.41821 c 0,-10.60134 -0.036,-10.58179 19.6815,-10.58179 l 16.7343,0 0,16.56574 c 0,9.50684 -1.0709,17.38996 -2.5131,18.5 -1.6172,1.24464 -5.0794,1.93426 -9.7109,1.93426 l -7.1978,0 0,8.5 0,8.5 8.2139,0 c 10.7606,0 11.1338,0.69314 11.1748,20.75 l 0.033,16.25 -16.7343,0 c -19.817,0 -19.6815,0.0763 -19.6815,-11.08179 l 0,-7.91821 -8.4971,0 -8.497,0 0,7.56574 c 0,10.63161 -1.4545,11.43426 -20.72106,11.43426 l -15.69479,0 0,-16.91821 z m 101.96435,0 c 0,-9.30502 0.6631,-17.63002 1.4736,-18.5 0.8739,-0.938 4.3322,-1.58179 8.4971,-1.58179 l 7.0234,0 0,-8.5 0,-8.5 -7.0234,0 c -4.1649,0 -7.6232,-0.64379 -8.4971,-1.58179 -0.8105,-0.86998 -1.4736,-9.19498 -1.4736,-18.5 l 0,-16.91821 44.9129,0 44.9129,0 0,16.56574 c 0,9.50684 -1.0709,17.38996 -2.5132,18.5 -1.6171,1.24464 -5.0793,1.93426 -9.7108,1.93426 l -7.1978,0 0,8.5 0,8.5 7.1978,0 c 4.6315,0 8.0937,0.68962 9.7108,1.93426 1.4423,1.11004 2.5132,8.99316 2.5132,18.5 l 0,16.56574 -16.7343,0 c -13.02,0 -17.0615,-0.35109 -18.208,-1.58179 -0.8105,-0.86998 -1.4736,-11.21998 -1.4736,-23 l 0,-21.41821 -8.497,0 -8.497,0 0,21.06574 c 0,12.6088 -1.0089,21.84226 -2.5132,23 -2.0868,1.60613 -5.1756,1.93426 -18.2079,1.93426 l -15.6948,0 0,-16.91821 z m 101.9644,-20 c 0,-9.30502 0.6631,-17.63002 1.4736,-18.5 0.8738,-0.938 4.3321,-1.58179 8.497,-1.58179 l 7.0235,0 0,-8.5 0,-8.5 -7.0235,0 c -8.7201,0 -9.9706,-1.26446 -9.9706,-10.08179 l 0,-6.91821 44.9129,0 44.9128,0 0,6.56574 c 0,8.13761 -2.6906,10.43426 -12.224,10.43426 l -7.1977,0 0,8.5 0,8.5 7.3432,0 c 10.5991,0 12.0785,2.58551 12.0785,21.10891 l 0,15.97871 -17.6009,-0.29381 -17.601,-0.29381 -0.7015,-8.75 -0.7014,-8.75 -8.4025,0 -8.4026,0 0,7.06574 c 0,10.09579 -1.5889,10.93426 -20.721,10.93426 l -15.6948,0 0,-16.91821 z m 101.9644,0 c 0,-9.30502 0.6631,-17.63002 1.4736,-18.5 0.8738,-0.938 4.3321,-1.58179 8.497,-1.58179 l 7.0234,0 0,-8.43664 0,-8.43664 -7.8901,-0.31336 -7.8901,-0.31336 -0.7051,-8.25 -0.7051,-8.25 35.3002,0 35.3001,0 0,35.56336 0,35.56336 -7.8901,-0.31336 -7.8901,-0.31336 -0.7014,-8.75 -0.7015,-8.75 -8.4025,0 -8.4025,0 0,7.06574 c 0,10.09579 -1.5889,10.93426 -20.721,10.93426 l -15.6948,0 0,-16.91821 z m 82.5425,0.0457 c 0,-9.33015 0.6632,-17.67571 1.4736,-18.54569 0.8739,-0.938 4.3322,-1.58179 8.4971,-1.58179 l 7.0234,0 0,-8.43664 0,-8.43664 -7.8901,-0.31336 -7.8901,-0.31336 -0.7051,-8.25 -0.7051,-8.25 34.0863,0 34.0863,0 0,35.5 0,35.5 -5.9839,0 c -8.3199,0 -11.0102,-2.67171 -11.0102,-10.93426 l 0,-7.06574 -8.4025,0 -8.4025,0 -0.7015,8.75 -0.7014,8.75 -16.3871,0.29569 -16.3872,0.29569 0,-16.9639 z m 80.1149,-9.06238 c 0,-8.38522 2.9253,-11.0651 12.0785,-11.0651 l 7.3433,0 0,-8.5 0,-8.5 -7.1978,0 c -9.5334,0 -12.224,-2.29665 -12.224,-10.43426 l 0,-6.56574 36.514,0 36.514,0 -0.7051,8.25 -0.7051,8.25 -7.8901,0.31336 -7.8901,0.31336 0,8.43664 0,8.43664 7.0235,0 c 8.7201,0 9.9706,1.26446 9.9706,10.08179 l 0,6.91821 -36.4159,0 -36.4158,0 0,-5.9349 z"
       id="path3020"
       style="fill:none;stroke:#ff0000;stroke-width:0.625;stroke-miterlimit:4;stroke-opacity:1;stroke-dasharray:none" />
  </g>
</svg>
