<?xml version="1.0" encoding="UTF-8" standalone="no"?>
<!-- Created with Inkscape (http://www.inkscape.org/) -->
<svg
   xmlns:svg="http://www.w3.org/2000/svg"
   xmlns="http://www.w3.org/2000/svg"
   xmlns:xlink="http://www.w3.org/1999/xlink"
   version="1.0"
   width="2160"
   height="1080"
   id="svg3814">
  <defs
     id="defs3816" />
  <g
     id="layer2">
    <rect
       width="7.8448448"
       height="38.799847"
       x="458.69867"
       y="362.15079"
       id="use4486"
       style="fill:none;fill-opacity:1;fill-rule:nonzero;stroke:#ff0000;stroke-width:0.625;stroke-miterlimit:4;stroke-dasharray:none;stroke-opacity:1" />
    <use
       transform="matrix(0.9696275,0,0,1,414.4225,3.173659e-8)"
       id="use4490"
       x="0"
       y="0"
       width="2160"
       height="1080"
       xlink:href="#use4486" />
    <path
       d="M 355.69,545.38922 C 355.69,527.06588 354.83,506.00374 354.83,506.00374 C 504.38085,506.00374 663.63821,513.99904 817.5202,509.02627 C 867.20954,549.09552 822.23205,670.21274 800,720 C 789.2782,711.37726 775.5518,716.76648 764.83,708.14374 C 781.6785,672.57487 764.83,698.14374 784.83,668.14374 C 797.0834,661.67668 803.8292,561.55693 772.42971,548.6228 C 633.81267,547.54494 494.30707,546.46708 355.69,545.38922 z"
       id="path4512"
       style="fill:none;fill-opacity:1;fill-rule:nonzero;stroke:#ff0000;stroke-width:0.625;stroke-miterlimit:4;stroke-dasharray:none;stroke-opacity:1" />
    <use
       transform="translate(-114.83,53.99626)"
       id="use4517"
       x="0"
       y="0"
       width="2160"
       height="1080"
       xlink:href="#path4512" />
  </g>
  <g
     id="layer1">
    <path
       d="M 1160.2952,107.11724 C 1159.3745,106.98102 1158.1936,107.2146 1156.5283,107.70084 C 1156.0953,107.82729 1155.2356,108.19836 1153.8756,108.81498 C 1152.5158,109.43161 1150.6878,110.28138 1148.4111,111.36159 C 1143.8577,113.52202 1137.6029,116.53557 1130.0543,120.22166 C 1114.9571,127.59383 1094.7472,137.58396 1073.127,148.39349 C 994.40891,187.75056 899.96864,233.50537 828.33449,266.96984 C 807.32047,276.78674 779.45097,290.1752 766.36707,296.73331 C 753.3028,303.28159 723.49654,317.76053 700.1553,328.93726 L 657.81797,349.204 C 487.10375,307.68758 334.53562,220.2005 169.71845,165.42392 C 167.28941,165.08235 164.79128,165.01539 163.7233,167.49304 C 163.62509,170.26452 165.48771,172.58347 167.06573,174.70843 C 176.33543,186.93077 203.13824,209.76085 226.38043,230.78681 C 280.72651,283.74876 339.39841,331.46934 397.85192,379.71023 C 431.78078,407.73236 473.46056,441.3357 490.37861,454.25152 C 496.44641,458.88388 502.588,463.58968 503.96052,464.70321 C 515.46537,474.03711 524.20378,480.85737 530.27545,485.23522 C 533.31129,487.42415 535.70917,489.0281 537.43778,490.01011 C 538.30207,490.50111 538.98645,490.81946 539.55995,491.01815 C 540.13345,491.21682 540.62426,491.36592 541.09852,491.07119 L 655.69581,414.72606 L 664.18449,419.554 C 669.01746,422.29866 674.50752,425.20193 676.49309,426.07968 C 678.29307,426.87539 683.41517,429.93417 687.68754,432.81758 C 689.84021,434.2704 691.94943,435.62297 693.57657,436.58444 C 694.39015,437.06517 695.04671,437.42252 695.59263,437.69857 C 695.8656,437.8366 696.13553,437.99014 696.3354,438.06995 C 696.53526,438.14977 696.67104,438.17607 696.919,438.17607 C 696.81216,438.17607 696.96271,438.21567 697.13121,438.28217 C 697.29972,438.34867 697.53821,438.46189 697.82092,438.6005 C 698.38633,438.8777 699.1009,439.26249 699.99615,439.7677 C 701.78665,440.7781 704.15321,442.15554 706.57488,443.69371 C 711.45193,446.79133 722.68638,453.51309 731.56345,458.60196 C 740.43344,463.68674 748.95557,468.61055 750.50384,469.53115 C 763.63344,475.64853 774.71504,484.94327 786.89908,492.50366 C 822.99112,467.85447 856.17747,433.20232 888.44501,403.26634 C 903.21879,389.51824 915.30797,378.13013 969.77721,326.70898 C 991.32721,306.36498 1014.842,282.77194 1024.2109,272.11611 C 1028.4077,267.34293 1040.6571,253.65084 1051.4278,241.66294 C 1074.668,215.7962 1098.0257,188.57204 1116.7376,165.58308 C 1120.4719,160.99532 1124.0889,156.63852 1126.871,153.27449 C 1129.6531,149.91045 1131.6425,147.5209 1132.0703,147.06713 C 1135.9267,142.97645 1143.332,133.92221 1149.7904,125.68625 C 1153.0198,121.56827 1156.0391,117.64538 1158.2261,114.65096 C 1159.3196,113.15374 1160.2007,111.89022 1160.8257,110.93716 C 1161.1383,110.46064 1161.3939,110.08883 1161.5685,109.76996 C 1161.6559,109.61052 1161.7271,109.47532 1161.7806,109.34553 C 1161.8343,109.21574 1161.8338,109.12061 1161.8338,108.9211 C 1161.8338,108.4754 1161.7474,108.02458 1161.4623,107.70084 C 1161.1775,107.3771 1160.7556,107.18536 1160.2952,107.11724 z"
       id="path4476"
       style="fill:none;fill-opacity:1;stroke:#ff0000;stroke-width:0.625;stroke-miterlimit:4;stroke-dasharray:none;stroke-opacity:1" />
  </g>
</svg>
